<?xml version="1.0" encoding="utf-8"?>
<!-- Generator: Adobe Illustrator 16.0.0, SVG Export Plug-In . SVG Version: 6.00 Build 0)  -->
<!DOCTYPE svg PUBLIC "-//W3C//DTD SVG 1.1//EN" "http://www.w3.org/Graphics/SVG/1.1/DTD/svg11.dtd">
<svg version="1.1" id="Layer_1" xmlns="http://www.w3.org/2000/svg" xmlns:xlink="http://www.w3.org/1999/xlink" x="0px" y="0px"
	 width="163px" height="61px" viewBox="0 0 163 61" enable-background="new 0 0 163 61" xml:space="preserve">
<path fill="#231F20" d="M0.099,50.502l4.686-8.148L4.324,30.116L2.521,14.724l0.372-7.477L2.177,3.41l8.86-2.369L19.062,0
	l12.502,2.972l13.999-0.075l12.649,1.664l72.079-0.374l11.564-1.332l10.467,3.162l4.354-1.364l2.031,3.71l3.182,15.682l0.445,6.607
	L162.9,38.9l-2.633,17.284l-32.479,1.616l-69.813-0.526l-37.799-0.726L4.528,61L0.099,50.502z M7.604,57.452l6.376-2.007
	l10.376-0.368l0.112-0.03c0.233-0.064,5.714-1.564,6.791-1.912c0.013,0.002,0.332,0.002,0.458,0.002
	c3.895,0,21.043,1.41,21.216,1.424l75.72,0.175l5.854,1.247l13.486-0.92l4.215-2.627l7.602-5.958l2.109-8.13l-2.234-8.201
	l0.123-4.634l-2.576-11.271l-1.865-3.294l-0.047-0.07l-1.916-3.38l-1.938-0.039l-0.395,0.153c0,0-0.336-0.021-0.355-0.021
	l0.066-0.084l-1.975-0.097l-1.254-0.027l-20.262-0.381l-0.131-0.006l-2.76-0.427l-0.316,0.37L54.707,5.999l-8.543,0.876L30.09,4.406
	l-6.875,0.471l-7.456-0.789L6.218,9.713l-0.263,9.661l0.65,7.592L8.203,38.81L3.814,49.768l3.595,4.083L7.604,57.452z"/>
</svg>
